<svg xmlns="http://www.w3.org/2000/svg" xmlns:xlink="http://www.w3.org/1999/xlink">
<defs>

<symbol id="copy" viewBox="0 0 30 32">
<path  d="M18.882 20.126v6.349c0 0.701-0.554 1.27-1.238 1.27h-13c-0.684 0-1.238-0.569-1.238-1.27v-13.333c0-0.701 0.554-1.27 1.238-1.27h6.19M25.073 4.253h-13c-0.684 0-1.238 0.569-1.238 1.27v13.333c0 0.701 0.554 1.27 1.238 1.27h13c0.684 0 1.238-0.569 1.238-1.27v-13.333c0-0.701-0.555-1.27-1.238-1.27z"></path>
</symbol>

<symbol id="down" viewBox="0 0 32 32">
<path  d="M31.733 16c0 8.689-7.044 15.733-15.733 15.733s-15.733-7.044-15.733-15.733c0-8.689 7.044-15.733 15.733-15.733s15.733 7.044 15.733 15.733z"></path>
<path d="M16 9.966v12.068M16 22.034l-4.525-4.525M16 22.034l4.525-4.525"></path>
</symbol>

<symbol id="arrow" viewBox="0 0 41 32">
<path d="M5.435 14.597l35.076 0.044v2.768l-34.732-0.043 13.741 12.593-1.867 2.041-17.653-16.178 17.296-15.818 1.867 2.041z"></path>
</symbol>

<symbol id="up" viewBox="0 0 32 32">
<path d="M0.267 16c0-8.689 7.044-15.733 15.733-15.733s15.733 7.044 15.733 15.733c0 8.689-7.044 15.733-15.733 15.733s-15.733-7.044-15.733-15.733z"></path>
<path d="M16 22.035v-12.068M16 9.966l4.525 4.525M16 9.966l-4.525 4.525"></path>
</symbol>

<symbol id="done" viewBox="0 0 32 32">
<path d="M10.002 16l4 4 8-8M29.335 16c0 7.364-5.969 13.333-13.333 13.333s-13.333-5.969-13.333-13.333 5.97-13.333 13.333-13.333c7.364 0 13.333 5.97 13.333 13.333z"></path>
</symbol>


</defs>
</svg>
