<svg xmlns="http://www.w3.org/2000/svg" xmlns:xlink="http://www.w3.org/1999/xlink">
<defs>
<symbol id="copy" viewBox="0 0 30 32">
<path  d="M18.882 20.126v6.349c0 0.701-0.554 1.27-1.238 1.27h-13c-0.684 0-1.238-0.569-1.238-1.27v-13.333c0-0.701 0.554-1.27 1.238-1.27h6.19M25.073 4.253h-13c-0.684 0-1.238 0.569-1.238 1.27v13.333c0 0.701 0.554 1.27 1.238 1.27h13c0.684 0 1.238-0.569 1.238-1.27v-13.333c0-0.701-0.555-1.27-1.238-1.27z"></path>
</symbol>

<symbol id="down" viewBox="0 0 32 32">
<path  d="M31.733 16c0 8.689-7.044 15.733-15.733 15.733s-15.733-7.044-15.733-15.733c0-8.689 7.044-15.733 15.733-15.733s15.733 7.044 15.733 15.733z"></path>
<path d="M16 9.966v12.068M16 22.034l-4.525-4.525M16 22.034l4.525-4.525"></path>
</symbol>



<symbol id="up" viewBox="0 0 32 32">
<path d="M0.267 16c0-8.689 7.044-15.733 15.733-15.733s15.733 7.044 15.733 15.733c0 8.689-7.044 15.733-15.733 15.733s-15.733-7.044-15.733-15.733z"></path>
<path d="M16 22.035v-12.068M16 9.966l4.525 4.525M16 9.966l-4.525 4.525"></path>
</symbol>

<symbol id="back" viewBox="0 0 32 32">
<path d="M12.586 27.414l-10-10c-0.781-0.781-0.781-2.047 0-2.828l10-10c0.781-0.781 2.047-0.781 2.828 0s0.781 2.047 0 2.828l-6.586 6.586h19.172c1.105 0 2 0.895 2 2s-0.895 2-2 2h-19.172l6.586 6.586c0.39 0.39 0.586 0.902 0.586 1.414s-0.195 1.024-0.586 1.414c-0.781 0.781-2.047 0.781-2.828 0z"></path>
</symbol>
</defs>
</svg>
