<svg xmlns="http://www.w3.org/2000/svg" xmlns:xlink="http://www.w3.org/1999/xlink">
<defs>
<symbol id="copy" viewBox="0 0 30 32">
<path  d="M18.882 20.126v6.349c0 0.701-0.554 1.27-1.238 1.27h-13c-0.684 0-1.238-0.569-1.238-1.27v-13.333c0-0.701 0.554-1.27 1.238-1.27h6.19M25.073 4.253h-13c-0.684 0-1.238 0.569-1.238 1.27v13.333c0 0.701 0.554 1.27 1.238 1.27h13c0.684 0 1.238-0.569 1.238-1.27v-13.333c0-0.701-0.555-1.27-1.238-1.27z"></path>
</symbol>

<symbol id="down" viewBox="0 0 32 32">
<path  d="M31.733 16c0 8.689-7.044 15.733-15.733 15.733s-15.733-7.044-15.733-15.733c0-8.689 7.044-15.733 15.733-15.733s15.733 7.044 15.733 15.733z"></path>
<path d="M16 9.966v12.068M16 22.034l-4.525-4.525M16 22.034l4.525-4.525"></path>
</symbol>

<symbol id="up" viewBox="0 0 32 32">
<path d="M0.267 16c0-8.689 7.044-15.733 15.733-15.733s15.733 7.044 15.733 15.733c0 8.689-7.044 15.733-15.733 15.733s-15.733-7.044-15.733-15.733z"></path>
<path d="M16 22.035v-12.068M16 9.966l4.525 4.525M16 9.966l-4.525 4.525"></path>
</symbol>
<symbol id="home" viewBox="0 0 32 32">
<path d="M32 19l-6-6v-9h-4v5l-6-6-16 16v1h4v10h10v-6h4v6h10v-10h4z"></path>
</symbol>
</defs>
</svg>
